<?xml version="1.0" encoding="utf-8"?>
<!-- Generator: Adobe Illustrator 16.0.0, SVG Export Plug-In . SVG Version: 6.00 Build 0)  -->
<!DOCTYPE svg PUBLIC "-//W3C//DTD SVG 1.1//EN" "http://www.w3.org/Graphics/SVG/1.1/DTD/svg11.dtd">
<svg version="1.1" id="Layer_1" xmlns="http://www.w3.org/2000/svg" xmlns:xlink="http://www.w3.org/1999/xlink" x="0px" y="0px"
	 width="300px" height="300px" viewBox="0 0 300 300" enable-background="new 0 0 300 300" xml:space="preserve">
<rect x="414.789" y="39.437" fill="#3698D4" width="300" height="300"/>
<path fill="#FFFFFF" d="M79.76,126.735c-0.971-8.106-5.819-11.684-14.526-10.45c-11.083,1.567-16.622,2.474-27.647,4.544
	c-1.174,0.22-1.684,0.719-1.535,1.492c7.528,39.496,11.296,59.236,18.836,98.733c0.072,0.385,0.499,0.678,1.297,0.877
	c0.795,0.198,1.933,0.163,3.399-0.104c1.463-0.268,2.583-0.637,3.356-1.12c0.77-0.483,1.134-0.881,1.083-1.171
	c-3.161-18.33-4.736-27.482-7.893-45.808c-0.083-0.484,0.133-0.776,0.668-0.866c5.776-0.986,8.667-1.436,14.461-2.272
	c4.184-0.603,7.36-2.013,9.542-4.275c2.185-2.26,3.071-5.28,2.612-9.096C81.953,145.026,81.224,138.929,79.76,126.735z
	 M72.343,161.257c-0.675,1.14-1.925,1.84-3.775,2.109c-5.151,0.76-7.738,1.179-12.875,2.057c-0.65,0.111-1.034-0.189-1.149-0.867
	c-2.565-14.891-3.847-22.329-6.413-37.225c-0.083-0.483,0.278-0.799,1.091-0.935c5.354-0.912,8.038-1.337,13.406-2.128
	c1.856-0.275,3.338-0.025,4.458,0.762c1.112,0.788,1.759,1.824,1.933,3.093c1.589,11.523,2.384,17.285,3.974,28.807
	C73.236,158.682,73.022,160.118,72.343,161.257z M105.406,134.697c2.135,27.153,3.656,46.486,6.185,78.75
	c0.083,1.077-1.405,1.727-4.462,1.994c-3.157,0.275-4.769-0.01-4.852-0.892c-3.078-31.877-4.942-51.158-7.514-77.779
	c0.513,0.044,1,0.152,1.528,0.152c1.701,0,3.472-0.225,5.277-0.672C102.909,135.915,104.188,135.363,105.406,134.697z
	 M267.773,124.788c-0.203,1.065-0.521,1.93-0.947,2.597c-0.426,0.673-0.921,0.946-1.499,0.84c-6.384-1.2-9.595-1.757-15.997-2.782
	c-0.581-0.093-0.906,0.158-1,0.744c-5.859,36.849-8.781,55.262-14.646,92.113c-0.076,0.484-0.733,0.78-1.95,0.888
	c-1.222,0.109-2.182,0.113-2.869,0.007c-0.784-0.117-1.73-0.328-2.832-0.635c-1.109-0.311-1.625-0.704-1.557-1.192
	c5.227-37.127,7.838-55.681,13.066-92.804c0.083-0.584-0.289-0.932-1.102-1.043c-6.352-0.882-9.526-1.287-15.893-2.002
	c-1.397-0.158-1.969-1.452-1.701-3.901c0.273-2.54,1.066-3.746,2.366-3.601c18.196,2.041,27.275,3.399,45.327,6.784
	c0.816,0.152,1.268,0.582,1.376,1.301C268.025,122.823,267.975,123.723,267.773,124.788z M193.209,111.516
	c-4.616-0.307-6.929-0.43-11.549-0.65c-5.094-0.242-9.021,0.639-11.734,2.579c-2.709,1.94-4.086,5.141-4.187,9.569
	c-0.697,31.051-1.044,46.566-1.737,77.617c-0.098,4.33,0.964,7.467,3.146,9.449c2.182,1.985,5.383,3.042,9.635,3.244
	c3.854,0.186,5.787,0.301,9.642,0.559c4.244,0.28,7.528-0.464,9.884-2.288s3.75-4.938,4.154-9.346
	c2.825-30.928,4.242-46.389,7.07-77.316c0.395-4.31-0.617-7.54-3.042-9.67C202.067,113.131,198.295,111.855,193.209,111.516z
	 M191.078,201.032c-0.115,1.571-0.614,2.868-1.496,3.888c-0.881,1.022-2.121,1.479-3.721,1.375c-3.128-0.201-4.688-0.286-7.817-0.44
	c-1.604-0.079-2.796-0.575-3.559-1.493c-0.766-0.916-1.124-2.062-1.069-3.443c1.235-30.853,1.856-46.279,3.096-77.131
	c0.064-1.571,0.586-2.868,1.564-3.912c0.976-1.04,2.395-1.535,4.271-1.441c3.651,0.181,5.487,0.285,9.136,0.52
	c1.983,0.127,3.389,0.664,4.198,1.61c0.81,0.947,1.166,2.115,1.065,3.487C194.48,154.849,193.339,170.239,191.078,201.032z
	 M153.349,209.049c-0.007,2.46-0.507,3.691-1.496,3.691c-10.209,0.004-15.314,0.134-25.516,0.643
	c-0.888,0.043-1.358-0.32-1.398-1.109c-2.11-40.21-3.154-60.311-5.271-100.523c-0.014-0.296,0.398-0.628,1.272-1.018
	c0.87-0.387,2.258-0.629,4.158-0.712c1.778-0.076,3.147,0.043,4.108,0.351c0.961,0.311,1.445,0.708,1.463,1.2
	c1.294,37.173,1.94,55.756,3.23,92.93c0.025,0.686,0.285,1.025,0.787,1.007c6.864-0.228,10.296-0.285,17.164-0.288
	C152.85,205.219,153.355,206.49,153.349,209.049z M108.813,75.199c-0.239-0.39-0.802-1.293-0.691-1.676
	c0.351-0.419,0.972-0.567,1.359-0.607c8.471-0.828,10.877-0.271,14.074,2.077c2.695,1.983,9.985,9.588,9.985,9.588
	s23.132-5.44,23.659-5.505c-0.855-2.486-24.717-21.452-28.337-27.073c-0.34-1.004-0.325-1.099,1.174-0.964
	c2.594,0.286,11.708,1.694,18.84,5.339c7.987,4.068,31.978,16.802,32.563,17.239c5.752-0.412,18.373-3.208,26.703-4.082
	c4.994,1.059,19.846,3.526,12.92,11.156c-4.556,5.003-27.008,9.678-27.008,9.678c-27.163,5.788-36.205,7.413-40.88,7.977
	c-2.561,0.321-24.822,3.153-24.822,3.153S115.333,85.936,108.813,75.199z M57.365,96.729c-1.611-5.538,0.872-11.715,4.206-14.49
	c2.717-2.257,5.604-3.403,8.58-3.403c2.669,0,5.317,0.972,7.46,2.731c4.18,3.446,5.715,8.988,3.581,12.897l-0.413,0.743
	l-5.662-3.095l0.406-0.749c0.553-0.997-0.217-3.323-2.027-4.812c-0.704-0.578-1.856-1.269-3.327-1.269
	c-1.431,0-2.937,0.651-4.469,1.926c-1.666,1.383-2.945,4.888-2.124,7.709c0.971,3.356,4.667,4.513,7.594,4.888
	c0.505,0.072,1.043,0.104,1.622,0.104c5.527,0,22.329-4.913,37.152-10.975l0.77-0.311l2.594,5.943l-3.895,1.499
	c-7.912,3.089-28.073,10.228-37.762,10.228c-0.478,0-0.918-0.029-1.311-0.083C61.13,105.045,58.259,99.771,57.365,96.729z
	 M117.595,96.646l1.369,7.084c-8.771,1.698-23.583,6.665-25.963,12.749c-1.052,2.677-0.972,5.18,0.213,6.528
	c1.362,1.549,3.88,1.213,5.26,0.867c1.5-0.379,3.104-2.001,3.306-3.345c0.047-0.304,0.188-1.222-1.708-2.367l3.731-6.17
	c3.818,2.312,5.683,5.812,5.112,9.613c-0.636,4.201-4.372,8.182-8.692,9.262c-1.358,0.336-2.677,0.505-3.93,0.505
	c-3.436,0-6.42-1.242-8.497-3.612c-3.02-3.431-3.58-8.637-1.506-13.918C90.88,102.119,114.875,97.174,117.595,96.646z
	 M58.711,234.25c-1.17,0-2.215-0.824-2.45-2.016c-0.268-1.354,0.614-2.669,1.968-2.937c63.779-12.6,118.338-13.043,176.906-1.438
	c1.354,0.269,2.234,1.584,1.966,2.938c-0.268,1.354-1.584,2.231-2.938,1.966c-57.896-11.472-111.857-11.029-174.965,1.438
	C59.035,234.235,58.872,234.25,58.711,234.25z"/>
</svg>
